<svg width="1366" height="454" viewBox="0 0 1366 454" fill="none" xmlns="http://www.w3.org/2000/svg">
<mask id="mask0_807_702" style="mask-type:alpha" maskUnits="userSpaceOnUse" x="-7" y="0" width="1380" height="454">
<rect x="-6.43457" y="0.392578" width="1378.87" height="453.409" fill="#262626"/>
</mask>
<g mask="url(#mask0_807_702)">
<path d="M-25.403 -298.754C-27.5856 -263.832 41.3873 -181.326 334.74 -130.688C701.432 -67.3897 930.614 37.3792 1017.92 299.302" stroke="#272627" stroke-opacity="0.22" stroke-width="7"/>
<path d="M-25.403 79.7876C-27.5856 114.71 41.3873 197.216 334.74 247.854C701.432 311.152 930.614 415.921 1017.92 677.844" stroke="#272627" stroke-opacity="0.22" stroke-width="7"/>
<path d="M-25.403 -120.127C-27.5856 -85.2038 41.3873 -2.69849 334.74 47.9399C701.432 111.238 930.614 216.007 1017.92 477.929" stroke="#272627" stroke-opacity="0.22" stroke-width="7"/>
<path d="M-25.403 258.416C-27.5856 293.338 41.3873 375.844 334.74 426.482C701.432 489.78 930.614 594.549 1017.92 856.472" stroke="#272627" stroke-opacity="0.22" stroke-width="7"/>
<path d="M-25.403 -199.64C-27.5856 -164.717 41.3873 -82.2119 334.74 -31.5735C701.432 31.7245 930.614 136.493 1017.92 398.416" stroke="#272627" stroke-opacity="0.22" stroke-width="7"/>
<path d="M-25.403 178.902C-27.5856 213.825 41.3873 296.33 334.74 346.968C701.432 410.267 930.614 515.035 1017.92 776.958" stroke="#272627" stroke-opacity="0.22" stroke-width="7"/>
<path d="M-25.403 -21.0127C-27.5856 13.9102 41.3873 96.4155 334.74 147.054C701.432 210.352 930.614 315.121 1017.92 577.043" stroke="#272627" stroke-opacity="0.22" stroke-width="7"/>
<path d="M-25.403 357.529C-27.5856 392.452 41.3873 474.958 334.74 525.596C701.432 588.894 930.614 693.663 1017.92 955.585" stroke="#272627" stroke-opacity="0.22" stroke-width="7"/>
<path d="M-25.403 -276.236C-27.5856 -241.313 41.3873 -158.807 334.74 -108.169C701.432 -44.8709 930.614 59.898 1017.92 321.82" stroke="#272627" stroke-opacity="0.22" stroke-width="7"/>
<path d="M-25.403 102.306C-27.5856 137.229 41.3873 219.734 334.74 270.373C701.432 333.671 930.614 438.44 1017.92 700.362" stroke="#272627" stroke-opacity="0.22" stroke-width="7"/>
<path d="M-25.403 -97.6079C-27.5856 -62.685 41.3873 19.8203 334.74 70.4587C701.432 133.757 930.614 238.526 1017.92 500.448" stroke="#272627" stroke-opacity="0.22" stroke-width="7"/>
<path d="M-25.403 280.934C-27.5856 315.857 41.3873 398.362 334.74 449.001C701.432 512.299 930.614 617.068 1017.92 878.99" stroke="#272627" stroke-opacity="0.22" stroke-width="7"/>
<path d="M-25.403 -177.122C-27.5856 -142.199 41.3873 -59.6934 334.74 -9.05494C701.432 54.2431 930.614 159.012 1017.92 420.934" stroke="#272627" stroke-opacity="0.22" stroke-width="7"/>
<path d="M-25.403 201.42C-27.5856 236.343 41.3873 318.849 334.74 369.487C701.432 432.785 930.614 537.554 1017.92 799.476" stroke="#272627" stroke-opacity="0.22" stroke-width="7"/>
<path d="M-25.403 1.5061C-27.5856 36.429 41.3873 118.934 334.74 169.573C701.432 232.871 930.614 337.64 1017.92 599.562" stroke="#272627" stroke-opacity="0.22" stroke-width="7"/>
<path d="M-25.403 380.048C-27.5856 414.971 41.3873 497.476 334.74 548.114C701.432 611.413 930.614 716.181 1017.92 978.104" stroke="#272627" stroke-opacity="0.22" stroke-width="7"/>
<path d="M-25.403 -257.138C-27.5856 -222.215 41.3873 -139.71 334.74 -89.0715C701.432 -25.7735 930.614 78.9954 1017.92 340.918" stroke="#272627" stroke-opacity="0.22" stroke-width="7"/>
<path d="M-25.403 121.404C-27.5856 156.327 41.3873 238.832 334.74 289.47C701.432 352.768 930.614 457.537 1017.92 719.46" stroke="#272627" stroke-opacity="0.22" stroke-width="7"/>
<path d="M-25.403 -78.5107C-27.5856 -43.5879 41.3873 38.9175 334.74 89.5559C701.432 152.854 930.614 257.623 1017.92 519.545" stroke="#272627" stroke-opacity="0.22" stroke-width="7"/>
<path d="M-25.403 300.031C-27.5856 334.954 41.3873 417.459 334.74 468.098C701.432 531.396 930.614 636.165 1017.92 898.087" stroke="#272627" stroke-opacity="0.22" stroke-width="7"/>
<path d="M-25.403 -158.024C-27.5856 -123.102 41.3873 -40.5962 334.74 10.0422C701.432 73.3403 930.614 178.109 1017.92 440.032" stroke="#272627" stroke-opacity="0.22" stroke-width="7"/>
<path d="M-25.403 220.518C-27.5856 255.44 41.3873 337.946 334.74 388.584C701.432 451.882 930.614 556.651 1017.92 818.574" stroke="#272627" stroke-opacity="0.22" stroke-width="7"/>
<path d="M-25.403 20.6033C-27.5856 55.5261 41.3873 138.031 334.74 188.67C701.432 251.968 930.614 356.737 1017.92 618.659" stroke="#272627" stroke-opacity="0.22" stroke-width="7"/>
<path d="M-25.403 399.146C-27.5856 434.068 41.3873 516.574 334.74 567.212C701.432 630.51 930.614 735.279 1017.92 997.202" stroke="#272627" stroke-opacity="0.22" stroke-width="7"/>
<path d="M-25.403 -239.721C-27.5856 -204.798 41.3873 -122.292 334.74 -71.6541C701.432 -8.35603 930.614 96.4129 1017.92 358.335" stroke="#272627" stroke-opacity="0.22" stroke-width="7"/>
<path d="M-25.403 138.821C-27.5856 173.744 41.3873 256.25 334.74 306.888C701.432 370.186 930.614 474.955 1017.92 736.877" stroke="#272627" stroke-opacity="0.22" stroke-width="7"/>
<path d="M-25.403 -61.0933C-27.5856 -26.1704 41.3873 56.335 334.74 106.973C701.432 170.271 930.614 275.04 1017.92 536.963" stroke="#272627" stroke-opacity="0.22" stroke-width="7"/>
<path d="M-25.403 317.449C-27.5856 352.372 41.3873 434.877 334.74 485.515C701.432 548.813 930.614 653.582 1017.92 915.505" stroke="#272627" stroke-opacity="0.22" stroke-width="7"/>
<path d="M-25.403 -140.607C-27.5856 -105.684 41.3873 -23.1787 334.74 27.4597C701.432 90.7577 930.614 195.527 1017.92 457.449" stroke="#272627" stroke-opacity="0.22" stroke-width="7"/>
<path d="M-25.403 237.935C-27.5856 272.858 41.3873 355.363 334.74 406.002C701.432 469.3 930.614 574.069 1017.92 835.991" stroke="#272627" stroke-opacity="0.22" stroke-width="7"/>
<path d="M-25.403 38.021C-27.5856 72.9439 41.3873 155.449 334.74 206.088C701.432 269.386 930.614 374.155 1017.92 636.077" stroke="#272627" stroke-opacity="0.22" stroke-width="7"/>
<path d="M-25.403 416.562C-27.5856 451.485 41.3873 533.991 334.74 584.629C701.432 647.927 930.614 752.696 1017.92 1014.62" stroke="#272627" stroke-opacity="0.22" stroke-width="7"/>
<path d="M-25.403 -219.241C-27.5856 -184.318 41.3873 -101.813 334.74 -51.1741C701.432 12.1239 930.614 116.893 1017.92 378.815" stroke="#272627" stroke-opacity="0.22" stroke-width="7"/>
<path d="M-25.403 159.301C-27.5856 194.224 41.3873 276.729 334.74 327.368C701.432 390.666 930.614 495.435 1017.92 757.357" stroke="#272627" stroke-opacity="0.22" stroke-width="7"/>
<path d="M-25.403 -40.613C-27.5856 -5.69017 41.3873 76.8152 334.74 127.454C701.432 190.752 930.614 295.521 1017.92 557.443" stroke="#272627" stroke-opacity="0.22" stroke-width="7"/>
<path d="M-25.403 337.929C-27.5856 372.852 41.3873 455.357 334.74 505.995C701.432 569.293 930.614 674.062 1017.92 935.985" stroke="#272627" stroke-opacity="0.22" stroke-width="7"/>
<path d="M-25.403 -120.127C-27.5856 -85.2038 41.3873 -2.69849 334.74 47.9399C701.432 111.238 930.614 216.007 1017.92 477.929" stroke="#272627" stroke-opacity="0.22" stroke-width="7"/>
<path d="M-25.403 258.416C-27.5856 293.338 41.3873 375.844 334.74 426.482C701.432 489.78 930.614 594.549 1017.92 856.472" stroke="#272627" stroke-opacity="0.22" stroke-width="7"/>
<path d="M-25.403 58.501C-27.5856 93.4238 41.3873 175.929 334.74 226.568C701.432 289.866 930.614 394.635 1017.92 656.557" stroke="#272627" stroke-opacity="0.22" stroke-width="7"/>
<path d="M-25.403 437.043C-27.5856 471.966 41.3873 554.471 334.74 605.11C701.432 668.408 930.614 773.177 1017.92 1035.1" stroke="#272627" stroke-opacity="0.22" stroke-width="7"/>
</g>
</svg>
