<svg width="352" height="1336" viewBox="0 0 352 1336" fill="none" xmlns="http://www.w3.org/2000/svg">
<path d="M-694.843 0.796906C-697.025 35.7198 -628.052 118.225 -334.699 168.864C31.992 232.162 261.174 336.931 348.482 598.853" stroke="#272627" stroke-opacity="0.02" stroke-width="7"/>
<path d="M-694.843 379.339C-697.025 414.262 -628.052 496.767 -334.699 547.406C31.992 610.704 261.174 715.473 348.482 977.395" stroke="#272627" stroke-opacity="0.02" stroke-width="7"/>
<path d="M-694.843 179.425C-697.025 214.348 -628.052 296.853 -334.699 347.491C31.992 410.789 261.174 515.558 348.482 777.481" stroke="#272627" stroke-opacity="0.02" stroke-width="7"/>
<path d="M-694.843 557.967C-697.025 592.89 -628.052 675.395 -334.699 726.033C31.992 789.331 261.174 894.1 348.482 1156.02" stroke="#272627" stroke-opacity="0.02" stroke-width="7"/>
<path d="M-694.843 99.9111C-697.025 134.834 -628.052 217.339 -334.699 267.978C31.992 331.276 261.174 436.045 348.482 697.967" stroke="#272627" stroke-opacity="0.02" stroke-width="7"/>
<path d="M-694.843 478.453C-697.025 513.376 -628.052 595.881 -334.699 646.52C31.992 709.818 261.174 814.587 348.482 1076.51" stroke="#272627" stroke-opacity="0.02" stroke-width="7"/>
<path d="M-694.843 278.539C-697.025 313.462 -628.052 395.967 -334.699 446.605C31.992 509.903 261.174 614.672 348.482 876.595" stroke="#272627" stroke-opacity="0.02" stroke-width="7"/>
<path d="M-694.843 657.081C-697.025 692.004 -628.052 774.509 -334.699 825.147C31.992 888.445 261.174 993.214 348.482 1255.14" stroke="#272627" stroke-opacity="0.02" stroke-width="7"/>
<path d="M-694.843 23.3157C-697.025 58.2386 -628.052 140.744 -334.699 191.382C31.992 254.68 261.174 359.449 348.482 621.372" stroke="#272627" stroke-opacity="0.02" stroke-width="7"/>
<path d="M-694.843 401.858C-697.025 436.781 -628.052 519.286 -334.699 569.924C31.992 633.222 261.174 737.991 348.482 999.914" stroke="#272627" stroke-opacity="0.02" stroke-width="7"/>
<path d="M-694.843 201.943C-697.025 236.866 -628.052 319.372 -334.699 370.01C31.992 433.308 261.174 538.077 348.482 799.999" stroke="#272627" stroke-opacity="0.02" stroke-width="7"/>
<path d="M-694.843 580.485C-697.025 615.408 -628.052 697.913 -334.699 748.552C31.992 811.85 261.174 916.619 348.482 1178.54" stroke="#272627" stroke-opacity="0.02" stroke-width="7"/>
<path d="M-694.843 122.43C-697.025 157.353 -628.052 239.858 -334.699 290.496C31.992 353.794 261.174 458.563 348.482 720.486" stroke="#272627" stroke-opacity="0.02" stroke-width="7"/>
<path d="M-694.843 500.972C-697.025 535.895 -628.052 618.4 -334.699 669.038C31.992 732.336 261.174 837.105 348.482 1099.03" stroke="#272627" stroke-opacity="0.02" stroke-width="7"/>
<path d="M-694.843 301.057C-697.025 335.98 -628.052 418.486 -334.699 469.124C31.992 532.422 261.174 637.191 348.482 899.113" stroke="#272627" stroke-opacity="0.02" stroke-width="7"/>
<path d="M-694.843 679.599C-697.025 714.522 -628.052 797.027 -334.699 847.666C31.992 910.964 261.174 1015.73 348.482 1277.66" stroke="#272627" stroke-opacity="0.02" stroke-width="7"/>
<path d="M-694.843 42.413C-697.025 77.3359 -628.052 159.841 -334.699 210.48C31.992 273.778 261.174 378.547 348.482 640.469" stroke="#272627" stroke-opacity="0.02" stroke-width="7"/>
<path d="M-694.843 420.955C-697.025 455.878 -628.052 538.383 -334.699 589.022C31.992 652.32 261.174 757.089 348.482 1019.01" stroke="#272627" stroke-opacity="0.02" stroke-width="7"/>
<path d="M-694.843 221.041C-697.025 255.964 -628.052 338.469 -334.699 389.107C31.992 452.405 261.174 557.174 348.482 819.097" stroke="#272627" stroke-opacity="0.02" stroke-width="7"/>
<path d="M-694.843 599.583C-697.025 634.506 -628.052 717.011 -334.699 767.649C31.992 830.947 261.174 935.716 348.482 1197.64" stroke="#272627" stroke-opacity="0.02" stroke-width="7"/>
<path d="M-694.843 141.527C-697.025 176.45 -628.052 258.955 -334.699 309.594C31.992 372.892 261.174 477.661 348.482 739.583" stroke="#272627" stroke-opacity="0.02" stroke-width="7"/>
<path d="M-694.843 520.069C-697.025 554.992 -628.052 637.497 -334.699 688.136C31.992 751.434 261.174 856.203 348.482 1118.13" stroke="#272627" stroke-opacity="0.02" stroke-width="7"/>
<path d="M-694.843 320.155C-697.025 355.078 -628.052 437.583 -334.699 488.221C31.992 551.519 261.174 656.288 348.482 918.211" stroke="#272627" stroke-opacity="0.02" stroke-width="7"/>
<path d="M-694.843 698.697C-697.025 733.619 -628.052 816.125 -334.699 866.763C31.992 930.061 261.174 1034.83 348.482 1296.75" stroke="#272627" stroke-opacity="0.02" stroke-width="7"/>
<path d="M-694.843 59.8305C-697.025 94.7533 -628.052 177.259 -334.699 227.897C31.992 291.195 261.174 395.964 348.482 657.887" stroke="#272627" stroke-opacity="0.02" stroke-width="7"/>
<path d="M-694.843 438.372C-697.025 473.295 -628.052 555.801 -334.699 606.439C31.992 669.737 261.174 774.506 348.482 1036.43" stroke="#272627" stroke-opacity="0.02" stroke-width="7"/>
<path d="M-694.843 238.458C-697.025 273.381 -628.052 355.886 -334.699 406.525C31.992 469.823 261.174 574.592 348.482 836.514" stroke="#272627" stroke-opacity="0.02" stroke-width="7"/>
<path d="M-694.843 617C-697.025 651.923 -628.052 734.428 -334.699 785.067C31.992 848.365 261.174 953.134 348.482 1215.06" stroke="#272627" stroke-opacity="0.02" stroke-width="7"/>
<path d="M-694.843 158.944C-697.025 193.867 -628.052 276.373 -334.699 327.011C31.992 390.309 261.174 495.078 348.482 757.001" stroke="#272627" stroke-opacity="0.02" stroke-width="7"/>
<path d="M-694.843 537.486C-697.025 572.409 -628.052 654.915 -334.699 705.553C31.992 768.851 261.174 873.62 348.482 1135.54" stroke="#272627" stroke-opacity="0.02" stroke-width="7"/>
<path d="M-694.843 337.572C-697.025 372.495 -628.052 455 -334.699 505.639C31.992 568.937 261.174 673.706 348.482 935.628" stroke="#272627" stroke-opacity="0.02" stroke-width="7"/>
<path d="M-694.843 716.114C-697.025 751.037 -628.052 833.542 -334.699 884.181C31.992 947.479 261.174 1052.25 348.482 1314.17" stroke="#272627" stroke-opacity="0.02" stroke-width="7"/>
<path d="M-694.843 80.3107C-697.025 115.234 -628.052 197.739 -334.699 248.377C31.992 311.675 261.174 416.444 348.482 678.367" stroke="#272627" stroke-opacity="0.02" stroke-width="7"/>
<path d="M-694.843 458.853C-697.025 493.776 -628.052 576.281 -334.699 626.919C31.992 690.217 261.174 794.986 348.482 1056.91" stroke="#272627" stroke-opacity="0.02" stroke-width="7"/>
<path d="M-694.843 258.938C-697.025 293.861 -628.052 376.367 -334.699 427.005C31.992 490.303 261.174 595.072 348.482 856.994" stroke="#272627" stroke-opacity="0.02" stroke-width="7"/>
<path d="M-694.843 637.48C-697.025 672.403 -628.052 754.908 -334.699 805.547C31.992 868.845 261.174 973.614 348.482 1235.54" stroke="#272627" stroke-opacity="0.02" stroke-width="7"/>
<path d="M-694.843 179.425C-697.025 214.348 -628.052 296.853 -334.699 347.491C31.992 410.789 261.174 515.558 348.482 777.481" stroke="#272627" stroke-opacity="0.02" stroke-width="7"/>
<path d="M-694.843 557.967C-697.025 592.89 -628.052 675.395 -334.699 726.033C31.992 789.331 261.174 894.1 348.482 1156.02" stroke="#272627" stroke-opacity="0.02" stroke-width="7"/>
<path d="M-694.843 358.052C-697.025 392.975 -628.052 475.481 -334.699 526.119C31.992 589.417 261.174 694.186 348.482 956.108" stroke="#272627" stroke-opacity="0.02" stroke-width="7"/>
<path d="M-694.843 736.594C-697.025 771.517 -628.052 854.022 -334.699 904.661C31.992 967.959 261.174 1072.73 348.482 1334.65" stroke="#272627" stroke-opacity="0.02" stroke-width="7"/>
</svg>
