<svg width="790" height="768" viewBox="0 0 790 768" fill="none" xmlns="http://www.w3.org/2000/svg">
<path d="M-256.854 -130.962C-259.036 -96.0387 -190.063 -13.5334 103.29 37.1051C469.981 100.403 699.163 205.172 786.471 467.094" stroke="#272627" stroke-opacity="0.02" stroke-width="7"/>
<path d="M-256.854 247.581C-259.036 282.503 -190.063 365.009 103.29 415.647C469.981 478.945 699.163 583.714 786.471 845.637" stroke="#272627" stroke-opacity="0.02" stroke-width="7"/>
<path d="M-256.854 47.6662C-259.036 82.5891 -190.063 165.094 103.29 215.733C469.981 279.031 699.163 383.8 786.471 645.722" stroke="#272627" stroke-opacity="0.02" stroke-width="7"/>
<path d="M-256.854 426.208C-259.036 461.131 -190.063 543.636 103.29 594.275C469.981 657.573 699.163 762.342 786.471 1024.26" stroke="#272627" stroke-opacity="0.02" stroke-width="7"/>
<path d="M-256.854 -31.8474C-259.036 3.07545 -190.063 85.5808 103.29 136.219C469.981 199.517 699.163 304.286 786.471 566.209" stroke="#272627" stroke-opacity="0.02" stroke-width="7"/>
<path d="M-256.854 346.695C-259.036 381.617 -190.063 464.123 103.29 514.761C469.981 578.059 699.163 682.828 786.471 944.751" stroke="#272627" stroke-opacity="0.02" stroke-width="7"/>
<path d="M-256.854 146.78C-259.036 181.703 -190.063 264.208 103.29 314.847C469.981 378.145 699.163 482.914 786.471 744.836" stroke="#272627" stroke-opacity="0.02" stroke-width="7"/>
<path d="M-256.854 525.322C-259.036 560.245 -190.063 642.75 103.29 693.389C469.981 756.687 699.163 861.456 786.471 1123.38" stroke="#272627" stroke-opacity="0.02" stroke-width="7"/>
<path d="M-256.854 -108.443C-259.036 -73.5199 -190.063 8.98546 103.29 59.6239C469.981 122.922 699.163 227.691 786.471 489.613" stroke="#272627" stroke-opacity="0.02" stroke-width="7"/>
<path d="M-256.854 270.099C-259.036 305.022 -190.063 387.527 103.29 438.166C469.981 501.464 699.163 606.233 786.471 868.155" stroke="#272627" stroke-opacity="0.02" stroke-width="7"/>
<path d="M-256.854 70.1848C-259.036 105.108 -190.063 187.613 103.29 238.251C469.981 301.55 699.163 406.318 786.471 668.241" stroke="#272627" stroke-opacity="0.02" stroke-width="7"/>
<path d="M-256.854 448.727C-259.036 483.65 -190.063 566.155 103.29 616.793C469.981 680.091 699.163 784.86 786.471 1046.78" stroke="#272627" stroke-opacity="0.02" stroke-width="7"/>
<path d="M-256.854 -9.32877C-259.036 25.5941 -190.063 108.099 103.29 158.738C469.981 222.036 699.163 326.805 786.471 588.727" stroke="#272627" stroke-opacity="0.02" stroke-width="7"/>
<path d="M-256.854 369.213C-259.036 404.136 -190.063 486.641 103.29 537.28C469.981 600.578 699.163 705.347 786.471 967.269" stroke="#272627" stroke-opacity="0.02" stroke-width="7"/>
<path d="M-256.854 169.299C-259.036 204.222 -190.063 286.727 103.29 337.365C469.981 400.663 699.163 505.432 786.471 767.355" stroke="#272627" stroke-opacity="0.02" stroke-width="7"/>
<path d="M-256.854 547.841C-259.036 582.764 -190.063 665.269 103.29 715.907C469.981 779.205 699.163 883.974 786.471 1145.9" stroke="#272627" stroke-opacity="0.02" stroke-width="7"/>
<path d="M-256.854 -89.3455C-259.036 -54.4226 -190.063 28.0828 103.29 78.7212C469.981 142.019 699.163 246.788 786.471 508.711" stroke="#272627" stroke-opacity="0.02" stroke-width="7"/>
<path d="M-256.854 289.196C-259.036 324.119 -190.063 406.625 103.29 457.263C469.981 520.561 699.163 625.33 786.471 887.253" stroke="#272627" stroke-opacity="0.02" stroke-width="7"/>
<path d="M-256.854 89.2822C-259.036 124.205 -190.063 206.71 103.29 257.349C469.981 320.647 699.163 425.416 786.471 687.338" stroke="#272627" stroke-opacity="0.02" stroke-width="7"/>
<path d="M-256.854 467.824C-259.036 502.747 -190.063 585.252 103.29 635.891C469.981 699.189 699.163 803.958 786.471 1065.88" stroke="#272627" stroke-opacity="0.02" stroke-width="7"/>
<path d="M-256.854 9.76852C-259.036 44.6914 -190.063 127.197 103.29 177.835C469.981 241.133 699.163 345.902 786.471 607.825" stroke="#272627" stroke-opacity="0.02" stroke-width="7"/>
<path d="M-256.854 388.31C-259.036 423.233 -190.063 505.739 103.29 556.377C469.981 619.675 699.163 724.444 786.471 986.366" stroke="#272627" stroke-opacity="0.02" stroke-width="7"/>
<path d="M-256.854 188.396C-259.036 223.319 -190.063 305.824 103.29 356.463C469.981 419.761 699.163 524.53 786.471 786.452" stroke="#272627" stroke-opacity="0.02" stroke-width="7"/>
<path d="M-256.854 566.938C-259.036 601.861 -190.063 684.366 103.29 735.005C469.981 798.303 699.163 903.072 786.471 1164.99" stroke="#272627" stroke-opacity="0.02" stroke-width="7"/>
<path d="M-256.854 -71.928C-259.036 -37.0051 -190.063 45.5002 103.29 96.1386C469.981 159.437 699.163 264.206 786.471 526.128" stroke="#272627" stroke-opacity="0.02" stroke-width="7"/>
<path d="M-256.854 306.614C-259.036 341.537 -190.063 424.042 103.29 474.681C469.981 537.979 699.163 642.748 786.471 904.67" stroke="#272627" stroke-opacity="0.02" stroke-width="7"/>
<path d="M-256.854 106.7C-259.036 141.622 -190.063 224.128 103.29 274.766C469.981 338.064 699.163 442.833 786.471 704.756" stroke="#272627" stroke-opacity="0.02" stroke-width="7"/>
<path d="M-256.854 485.242C-259.036 520.164 -190.063 602.67 103.29 653.308C469.981 716.606 699.163 821.375 786.471 1083.3" stroke="#272627" stroke-opacity="0.02" stroke-width="7"/>
<path d="M-256.854 27.186C-259.036 62.1089 -190.063 144.614 103.29 195.253C469.981 258.551 699.163 363.32 786.471 625.242" stroke="#272627" stroke-opacity="0.02" stroke-width="7"/>
<path d="M-256.854 405.728C-259.036 440.651 -190.063 523.156 103.29 573.795C469.981 637.093 699.163 741.862 786.471 1003.78" stroke="#272627" stroke-opacity="0.02" stroke-width="7"/>
<path d="M-256.854 205.814C-259.036 240.736 -190.063 323.242 103.29 373.88C469.981 437.178 699.163 541.947 786.471 803.87" stroke="#272627" stroke-opacity="0.02" stroke-width="7"/>
<path d="M-256.854 584.356C-259.036 619.278 -190.063 701.784 103.29 752.422C469.981 815.72 699.163 920.489 786.471 1182.41" stroke="#272627" stroke-opacity="0.02" stroke-width="7"/>
<path d="M-256.854 -51.4478C-259.036 -16.5249 -190.063 65.9804 103.29 116.619C469.981 179.917 699.163 284.686 786.471 546.608" stroke="#272627" stroke-opacity="0.02" stroke-width="7"/>
<path d="M-256.854 327.094C-259.036 362.017 -190.063 444.522 103.29 495.161C469.981 558.459 699.163 663.228 786.471 925.15" stroke="#272627" stroke-opacity="0.02" stroke-width="7"/>
<path d="M-256.854 127.18C-259.036 162.103 -190.063 244.608 103.29 295.246C469.981 358.545 699.163 463.313 786.471 725.236" stroke="#272627" stroke-opacity="0.02" stroke-width="7"/>
<path d="M-256.854 505.722C-259.036 540.645 -190.063 623.15 103.29 673.788C469.981 737.086 699.163 841.855 786.471 1103.78" stroke="#272627" stroke-opacity="0.02" stroke-width="7"/>
<path d="M-256.854 47.6662C-259.036 82.5891 -190.063 165.094 103.29 215.733C469.981 279.031 699.163 383.8 786.471 645.722" stroke="#272627" stroke-opacity="0.02" stroke-width="7"/>
<path d="M-256.854 426.208C-259.036 461.131 -190.063 543.636 103.29 594.275C469.981 657.573 699.163 762.342 786.471 1024.26" stroke="#272627" stroke-opacity="0.02" stroke-width="7"/>
<path d="M-256.854 226.294C-259.036 261.217 -190.063 343.722 103.29 394.36C469.981 457.658 699.163 562.427 786.471 824.35" stroke="#272627" stroke-opacity="0.02" stroke-width="7"/>
<path d="M-256.854 604.836C-259.036 639.759 -190.063 722.264 103.29 772.902C469.981 836.2 699.163 940.969 786.471 1202.89" stroke="#272627" stroke-opacity="0.02" stroke-width="7"/>
</svg>
