<svg width="17" height="14" viewBox="0 0 17 14" fill="none" xmlns="http://www.w3.org/2000/svg">
<g clip-path="url(#clip0_966_1655)">
<path d="M8.40409 2.3337H8.63256C11.1491 2.3337 13.6661 2.3337 16.1834 2.3337C16.8036 2.3337 17.1867 2.93661 16.9043 3.47063C16.7432 3.77646 16.4723 3.89055 16.1385 3.89019C14.9075 3.888 13.6765 3.888 12.4455 3.89019C11.1717 3.89019 9.89797 3.89383 8.62459 3.88581C8.44971 3.88581 8.38273 3.94086 8.32879 4.10671C7.88815 5.46198 6.56553 6.33026 5.14878 6.20378C3.88626 6.0926 2.84279 5.25603 2.46443 4.04183C2.4246 3.91388 2.3674 3.88654 2.24719 3.888C1.76456 3.89347 1.28157 3.89456 0.798935 3.888C0.427457 3.88363 0.128029 3.66091 0.0328061 3.33357C-0.0606065 3.01316 0.0476511 2.65885 0.329699 2.48534C0.472415 2.39877 0.634017 2.34871 0.800383 2.33953C1.28845 2.32094 1.77796 2.33006 2.26674 2.33479C2.3721 2.33479 2.42098 2.30964 2.45574 2.19846C2.89022 0.81804 4.12124 -0.0498754 5.55899 0.000792421C6.81318 0.0452635 7.9602 0.933227 8.34906 2.16019C8.36716 2.21305 8.38309 2.26554 8.40409 2.3337ZM6.94425 3.10429C6.99422 2.38473 6.35083 1.55254 5.41055 1.55509C5.00081 1.55678 4.60852 1.72228 4.31997 2.01517C4.03143 2.30806 3.87027 2.70435 3.87195 3.11686C3.87364 3.52938 4.03801 3.92433 4.32893 4.21483C4.61985 4.50532 5.01348 4.66757 5.42322 4.66588C6.39717 4.65822 6.99965 3.80015 6.94425 3.10429Z" fill="#272727"/>
<path d="M8.59218 11.6645H8.37205C5.84918 11.6645 3.3268 11.6645 0.804904 11.6645C0.447547 11.6645 0.163689 11.4684 0.0496385 11.1491C-0.0644117 10.8298 0.0293628 10.5021 0.296204 10.2823C0.46384 10.1441 0.661526 10.1084 0.871885 10.1084C3.1232 10.1099 5.37464 10.1099 7.62619 10.1084C7.89774 10.1084 8.16929 10.1033 8.44084 10.1106C8.55308 10.1135 8.60847 10.0818 8.64685 9.96699C9.03969 8.79033 9.84167 8.0715 11.0528 7.83092C12.5481 7.53493 14.0633 8.4557 14.5286 9.93309C14.5709 10.0672 14.6231 10.1153 14.7636 10.1113C15.2463 10.1028 15.7291 10.1028 16.2118 10.1113C16.533 10.1161 16.7835 10.2601 16.9229 10.5579C17.058 10.8469 17.0218 11.1272 16.8237 11.3773C16.7529 11.4687 16.6618 11.5423 16.5578 11.5921C16.4538 11.6419 16.3396 11.6666 16.2245 11.6642C15.7296 11.666 15.2342 11.6678 14.74 11.6624C14.6263 11.6624 14.5775 11.6915 14.5405 11.8082C14.3366 12.4723 13.9177 13.0486 13.3505 13.445C12.7833 13.8414 12.1005 14.0351 11.4112 13.9953C10.1599 13.9293 9.03498 13.0523 8.65228 11.8446C8.63056 11.787 8.61282 11.7305 8.59218 11.6645ZM10.0513 10.8816C9.9959 11.6179 10.6559 12.4585 11.6082 12.4435C12.0181 12.4404 12.41 12.2734 12.6977 11.9794C12.9853 11.6853 13.1452 11.2883 13.1421 10.8755C13.1389 10.4628 12.9731 10.0683 12.681 9.77867C12.389 9.48906 11.9946 9.32813 11.5846 9.33127C11.3825 9.33034 11.1821 9.36986 10.9953 9.44752C10.8084 9.52519 10.6387 9.63945 10.496 9.78368C10.3534 9.92791 10.2406 10.0992 10.1643 10.2877C10.0879 10.4762 10.0495 10.678 10.0513 10.8816Z" fill="#272727"/>
</g>
<defs>
<clipPath id="clip0_966_1655">
<rect width="17" height="14" fill="white"/>
</clipPath>
</defs>
</svg>
