<svg width="14" height="13" viewBox="0 0 14 13" fill="none" xmlns="http://www.w3.org/2000/svg">
<path d="M12 3.44443H2.22222C1.54721 3.44443 1 3.99163 1 4.66665V10.7778C1 11.4528 1.54721 12 2.22222 12H12C12.675 12 13.2222 11.4528 13.2222 10.7778V4.66665C13.2222 3.99163 12.675 3.44443 12 3.44443Z" stroke="#8B8B8B" stroke-width="1.5" stroke-linecap="round" stroke-linejoin="round"/>
<path d="M9.55686 12V2.22222C9.55686 1.89807 9.42809 1.58719 9.19888 1.35798C8.96967 1.12877 8.65879 1 8.33464 1H5.89019C5.56604 1 5.25516 1.12877 5.02595 1.35798C4.79674 1.58719 4.66797 1.89807 4.66797 2.22222V12" stroke="#8B8B8B" stroke-width="1.5" stroke-linecap="round" stroke-linejoin="round"/>
</svg>
