<svg width="24" height="21" viewBox="0 0 24 21" fill="none" xmlns="http://www.w3.org/2000/svg">
<rect x="10.9668" y="10.864" width="2.68563" height="3.34518" fill="#72D9D4" stroke="#4C6563" stroke-width="0.5"/>
<path d="M14.36 12.6207C14.36 13.1841 14.3511 13.6967 14.36 14.2084C14.3689 14.6079 14.1716 14.8071 13.8028 14.8108C12.811 14.8234 11.8192 14.8225 10.8275 14.8108C10.44 14.8108 10.2303 14.6115 10.2418 14.1876C10.256 13.6759 10.2418 13.1641 10.2418 12.608C9.29535 12.3888 8.36488 12.1714 7.43442 11.9586C5.7059 11.5646 3.9765 11.176 2.24976 10.7811C1.36729 10.5783 0.926494 10.0031 0.923828 9.07202C0.923828 8.121 0.923828 7.16998 0.923828 6.21986C0.923828 4.81507 1.47215 4.26347 2.8683 4.26347H20.2788C20.8555 4.26347 21.4341 4.25623 22.0108 4.26347C23.0479 4.28068 23.6665 4.9156 23.6709 5.96354C23.6753 7.01147 23.6753 8.07662 23.6709 9.13361C23.6709 9.99043 23.2017 10.5828 22.3734 10.7757C19.8537 11.3536 17.3336 11.9272 14.8133 12.4966C14.6764 12.5337 14.5351 12.5745 14.36 12.6207ZM14.3885 11.4849C14.4815 11.4946 14.5753 11.4946 14.6684 11.4849C17.1443 10.9203 19.6205 10.3554 22.097 9.79027C22.4783 9.69969 22.6409 9.49319 22.6365 9.09557C22.6249 8.07028 22.6365 7.04408 22.6311 6.01607C22.6311 5.47807 22.4943 5.34039 21.9788 5.34039C15.5251 5.34039 9.07169 5.34039 2.61857 5.34039C2.12535 5.34039 1.98138 5.48259 1.97782 5.98346C1.96982 7.00876 1.98493 8.03495 1.97072 9.06296C1.96361 9.50224 2.14223 9.70875 2.56614 9.80114C4.55593 10.2386 6.54128 10.7005 8.52751 11.1543L10.1938 11.5329C10.3209 10.7114 10.3716 10.6127 10.7999 10.6072C11.8068 10.5955 12.8128 10.6 13.8215 10.6072C14.1521 10.6072 14.344 10.7811 14.36 11.1317C14.3636 11.244 14.3778 11.3608 14.3885 11.4849ZM11.2878 13.7429H13.3194V11.6887H11.2878V13.7429Z" fill="#4C6563" stroke="#4C6563" stroke-width="0.2"/>
<path d="M12.3061 20.6174C9.29989 20.6174 6.29402 20.6174 3.28845 20.6174C2.29756 20.6174 1.75457 20.2705 1.52528 19.4979C1.47974 19.3397 1.45698 19.1756 1.45774 19.0107C1.453 16.7765 1.453 14.5424 1.45774 12.3082C1.45774 12.2177 1.43286 12.0899 1.47996 12.0437C1.62659 11.9025 1.80077 11.6987 1.96607 11.6978C2.13137 11.6969 2.33488 11.8871 2.43353 12.0501C2.51529 12.185 2.47707 12.4015 2.47707 12.5818C2.47707 14.6191 2.47707 16.6561 2.47707 18.6927C2.47707 19.4355 2.60327 19.5604 3.32933 19.5604H21.2694C21.9982 19.5604 22.1262 19.4355 22.127 18.6982C22.127 16.6766 22.127 14.6538 22.127 12.6298C22.127 12.4785 22.127 12.3282 22.1377 12.1769C22.1555 11.8291 22.3306 11.6498 22.6789 11.6697C23.0095 11.6887 23.1455 11.8925 23.1455 12.2086C23.1455 13.2804 23.1455 14.3516 23.1455 15.4221C23.1455 16.5996 23.1517 17.7771 23.1455 18.9545C23.1384 19.9191 22.6123 20.4943 21.6711 20.5948C21.4938 20.6097 21.3158 20.6154 21.1379 20.612L12.3061 20.6174Z" fill="#4C6563" stroke="#4C6563" stroke-width="0.2"/>
<path d="M12.3067 0.579865C13.0923 0.579865 13.877 0.571714 14.6617 0.579865C15.9059 0.594357 16.5591 1.34431 16.4445 2.61686C16.4142 2.95651 16.2907 3.21193 15.9112 3.20106C15.5318 3.19019 15.4153 2.95561 15.4073 2.59875C15.386 1.68214 15.33 1.63323 14.4298 1.63323H10.1249C9.29756 1.63323 9.22913 1.71747 9.18469 2.55618C9.17403 2.75544 9.07983 3.01357 8.93586 3.1277C8.65858 3.34779 8.25334 3.15034 8.19646 2.78714C8.01872 1.64863 8.46307 0.613377 9.81922 0.582582C10.6484 0.564468 11.4775 0.579865 12.3067 0.579865Z" fill="#4C6563" stroke="#4C6563" stroke-width="0.2"/>
</svg>
