<svg width="45" height="40" viewBox="0 0 45 40" fill="none" xmlns="http://www.w3.org/2000/svg">
<path d="M14.1932 6.50849C14.1932 5.56789 14.1932 4.62729 14.1932 3.68669C14.208 1.42373 15.5468 0.112735 17.832 0.112735C21.2394 0.112735 24.6468 0.110029 28.0542 0.104614C30.4498 0.104614 31.7787 1.40423 31.7903 3.76142C31.7903 4.67603 31.7903 5.59064 31.7903 6.56698C32.1398 6.58485 32.4036 6.60921 32.6674 6.60921C34.8915 6.60921 37.119 6.59784 39.3415 6.60921C42.5681 6.63033 44.9472 8.88355 44.9637 12.0692C45 19.241 45 26.4127 44.9637 33.5845C44.9489 36.8465 42.5598 39.0981 39.2294 39.0981C28.3806 39.0981 17.5319 39.0981 6.68319 39.0981C3.46155 39.0981 1.04944 36.8579 1.02635 33.6787C0.976892 26.4225 0.976892 19.17 1.02635 11.9214C1.04449 8.92904 3.43187 6.65957 6.46721 6.61571C8.96505 6.57997 11.4645 6.59459 13.9624 6.58647C14.041 6.56555 14.1181 6.5395 14.1932 6.50849ZM3.25711 20.741C3.23238 21.0919 3.206 21.2982 3.206 21.5029C3.206 25.4299 3.206 29.3553 3.206 33.2791C3.206 35.6671 4.49366 36.9245 6.9305 36.9261C10.4478 36.9261 13.9651 36.9261 17.4825 36.9261C24.7072 36.9261 31.932 36.9261 39.1568 36.9261C41.4651 36.9261 42.7676 35.607 42.7692 33.3294C42.7692 29.4046 42.7692 25.4797 42.7692 21.5549C42.7692 21.3242 42.7395 21.0951 42.7165 20.7426C41.4189 21.6085 40.0686 21.8034 38.6408 21.7888C35.2345 21.7547 31.8282 21.8034 28.4186 21.7612C27.5942 21.7514 27.3452 21.9512 27.3436 22.7911C27.3436 24.8169 25.9422 26.0987 23.8812 26.1117C23.3322 26.1117 22.7832 26.1117 22.2325 26.1117C19.9622 26.1117 18.625 24.8559 18.6052 22.6189C18.6052 21.9171 18.3464 21.7628 17.6918 21.7693C14.834 21.7964 11.9762 21.7964 9.11839 21.7693C7.15144 21.7482 5.107 22.0747 3.25711 20.741ZM23.0305 8.77471H20.3925C15.8859 8.77471 11.3832 8.77471 6.88434 8.77471C4.49531 8.77471 3.20764 10.0467 3.20105 12.3763C3.20105 13.7295 3.18291 15.0827 3.20105 16.4376C3.21347 17.2732 3.55678 18.0709 4.15772 18.6606C4.75866 19.2503 5.56967 19.5852 6.41775 19.5941C10.344 19.6146 14.2702 19.6108 18.1964 19.5827C18.3538 19.5651 18.5056 19.5147 18.6418 19.4348C18.7779 19.355 18.8953 19.2476 18.9861 19.1197C19.6192 18.132 20.4865 17.5325 21.6637 17.4627C22.5662 17.405 23.4716 17.405 24.3742 17.4627C24.9005 17.4841 25.4116 17.6431 25.8549 17.9235C26.2982 18.2038 26.6578 18.5954 26.8968 19.058C27.1309 19.495 27.3914 19.607 27.8415 19.6054C31.6864 19.5908 35.5296 19.6054 39.3728 19.5924C41.3266 19.5924 42.7428 18.1888 42.761 16.2719C42.7742 14.9463 42.7725 13.6207 42.761 12.2951C42.7478 10.0727 41.442 8.77633 39.1618 8.77146C33.788 8.76604 28.4109 8.76713 23.0305 8.77471ZM16.3976 6.54749H29.5776C29.5776 5.45093 29.5974 4.42585 29.5776 3.4024C29.5611 2.69086 29.1275 2.29447 28.4235 2.29122C24.8029 2.27498 21.1822 2.27498 17.5616 2.29122C16.8609 2.29122 16.4223 2.67786 16.4075 3.39915C16.3828 4.4226 16.3976 5.44768 16.3976 6.54749ZM25.1903 21.7855C25.1903 21.5419 25.1903 21.2982 25.1903 21.0545C25.1656 19.9514 24.7666 19.5664 23.629 19.5567C23.108 19.5567 22.5853 19.5437 22.0643 19.5567C21.2812 19.5859 20.831 19.9888 20.7882 20.7507C20.7503 21.4233 20.7569 22.1023 20.7882 22.7765C20.8179 23.475 21.2152 23.8812 21.9308 23.9137C22.615 23.9429 23.3009 23.9364 23.9851 23.9137C24.7402 23.8958 25.1392 23.488 25.1837 22.7489C25.2134 22.4337 25.1903 22.1088 25.1903 21.7855Z" fill="url(#paint0_linear_837_78)"/>
<defs>
<linearGradient id="paint0_linear_837_78" x1="22.9901" y1="0.104614" x2="22.9901" y2="39.0981" gradientUnits="userSpaceOnUse">
<stop stop-color="#CC4FAF"/>
<stop offset="1" stop-color="#72D9D4"/>
</linearGradient>
</defs>
</svg>
