<svg width="18" height="18" viewBox="0 0 18 18" fill="none" xmlns="http://www.w3.org/2000/svg">
<g clip-path="url(#clip0_1171_50)">
<path d="M0.689557 9.2537C0.689557 7.5915 0.673926 5.92929 0.693278 4.26858C0.716351 2.22989 2.05611 0.816198 4.08063 0.792389C7.47963 0.750722 10.8786 0.750722 14.2776 0.792389C16.2672 0.815454 17.6427 2.21278 17.6605 4.1979C17.6913 7.57091 17.6913 10.9452 17.6605 14.3207C17.6427 16.3259 16.253 17.7247 14.2546 17.7433C10.8925 17.7753 7.53049 17.7574 4.16845 17.7433C3.46657 17.7433 2.79074 17.5878 2.19455 17.1838C1.23216 16.5312 0.720072 15.6138 0.701464 14.4613C0.673925 12.7247 0.694768 10.9881 0.694768 9.25296L0.689557 9.2537ZM16.9899 9.28421H16.9966C16.9966 7.622 17.0182 5.95906 16.9907 4.29909C16.9624 2.55057 15.8742 1.48435 14.1347 1.45608C12.9935 1.43773 11.8522 1.43004 10.7109 1.43301C8.50331 1.43673 6.2942 1.42557 4.08658 1.46575C2.50344 1.49477 1.37953 2.59447 1.36762 4.13168C1.34231 7.50519 1.33562 10.8794 1.36762 14.2507C1.38251 15.997 2.44538 17.0521 4.20046 17.0669C7.56175 17.0967 10.9238 17.0863 14.2851 17.0617C14.7168 17.0504 15.1409 16.9455 15.5281 16.7544C16.4793 16.2887 16.9624 15.465 16.981 14.4196C17.0167 12.7083 16.9914 10.9963 16.9914 9.28421H16.9899Z" fill="#469C99"/>
<path d="M9.44282 7.57587V8.4918C9.59168 8.35043 9.67951 8.26412 9.7718 8.1845C10.6724 7.40772 11.6981 7.22766 12.7848 7.67111C13.8715 8.11456 14.2838 9.03421 14.3039 10.1406C14.3292 11.5409 14.3099 12.9419 14.3099 14.3735H12.2317V12.5878C12.2317 11.9925 12.2317 11.3973 12.2317 10.8021C12.2317 9.8787 11.768 9.35117 10.9612 9.34968C10.1328 9.34968 9.57084 9.9226 9.56265 10.805C9.55298 11.8839 9.56265 12.9628 9.56265 14.0431C9.56265 14.151 9.55149 14.2589 9.54479 14.3839H7.53516V7.57587H9.44282Z" fill="#469C99"/>
<path d="M6.32161 7.59076V14.378H4.22266V7.59076H6.32161Z" fill="#469C99"/>
<path d="M5.27734 6.56173C4.95725 6.56336 4.64937 6.439 4.42026 6.21554C4.19115 5.99208 4.05921 5.68746 4.05295 5.36754C4.04838 5.12614 4.11572 4.88884 4.24642 4.6858C4.37711 4.48277 4.56525 4.32317 4.78692 4.2273C5.00858 4.13143 5.25377 4.10363 5.49128 4.14742C5.7288 4.19121 5.94793 4.30462 6.1208 4.47323C6.29367 4.64184 6.41248 4.85803 6.46211 5.09431C6.51175 5.3306 6.48998 5.5763 6.39956 5.80018C6.30915 6.02407 6.15418 6.21601 5.95435 6.35162C5.75452 6.48722 5.51886 6.56036 5.27734 6.56173Z" fill="#469C99"/>
</g>
<defs>
<clipPath id="clip0_1171_50">
<rect width="17" height="17" fill="white" transform="translate(0.683594 0.761139)"/>
</clipPath>
</defs>
</svg>
