<svg width="71" height="68" viewBox="0 0 71 68" fill="none" xmlns="http://www.w3.org/2000/svg">
<g clip-path="url(#clip0_807_892)">
<path d="M10.0482 13.0142C7.23368 9.36258 8.08 4.89265 10.9689 2.40794C12.4115 1.16629 14.2681 0.474436 16.195 0.460369C18.1219 0.446302 19.9889 1.11097 21.4506 2.33142C24.462 4.88202 25.1968 9.45185 22.4741 12.9908C23.2862 13.6625 24.0997 14.3362 24.9146 15.0122C25.7041 14.3618 26.4979 13.705 27.3421 13.0121C25.9228 11.0035 25.1946 8.82057 25.8572 6.34862C26.301 4.61769 27.3414 3.08671 28.8051 2.01047C30.2825 0.925582 32.1048 0.379007 33.9543 0.466013C35.8039 0.553018 37.5633 1.26809 38.926 2.48659C41.6246 4.90328 42.6853 9.09051 39.8161 12.9972L42.2217 15.0122L44.6272 13.0354C42.1232 8.51663 42.5956 4.73111 45.9918 2.10825C47.4633 0.984591 49.2954 0.4012 51.1657 0.460681C53.0361 0.520161 54.8249 1.2187 56.2177 2.43345C58.5839 4.4718 60.2766 8.71005 57.0925 13.0609C58.8289 14.1237 60.1869 15.5074 60.668 17.5245C60.8254 18.1407 60.917 18.7711 60.9414 19.4056C60.9764 21.3525 60.9873 23.3016 60.9414 25.2486C60.8976 27.3507 59.5965 28.6366 57.4533 28.6494C53.0795 28.6834 48.7058 28.7556 44.332 28.6068C42.8887 28.558 41.489 28.5558 40.037 28.6068C35.7419 28.7599 31.4359 28.7641 27.1343 28.6068C25.6166 28.5516 24.1339 28.5622 22.6206 28.6068C18.3627 28.7493 14.0918 28.6727 9.83389 28.6494C7.50486 28.6366 6.1971 27.3422 6.16867 25.0828C6.15336 23.6672 6.16867 22.2516 6.16867 20.8318C6.18835 16.7211 6.74382 15.5839 10.0482 13.0142ZM16.2109 26.0116C18.2862 26.0116 20.3659 25.9882 22.4391 26.0222C23.2461 26.035 23.55 25.7183 23.5325 24.9595C23.5085 23.1549 23.5325 21.3461 23.5194 19.5437C23.5194 18.1345 23.0558 16.8953 21.8924 15.9899C20.9848 15.2842 20.0532 14.9123 18.8176 15.4181C17.975 15.7593 17.0702 15.9316 16.1574 15.9247C15.2446 15.9177 14.3427 15.7317 13.5057 15.3777C12.6309 15.027 11.9158 15.1652 11.1745 15.5903C10.5037 15.9547 9.94651 16.4882 9.56162 17.1346C9.17674 17.781 8.97843 18.5164 8.98757 19.2632C8.95258 21.1378 9.00944 23.0147 8.96351 24.8915C8.94165 25.7162 9.2347 26.0329 10.092 26.018C12.1323 25.9861 14.1727 26.0116 16.2109 26.0116ZM33.4872 26.0116C35.5648 26.0116 37.6423 25.9925 39.7199 26.0116C40.5334 26.0244 40.927 25.7757 40.9095 24.917C40.868 23.0402 40.9292 21.1612 40.8833 19.2844C40.8774 18.5899 40.6983 17.9072 40.3612 17.2949C40.0241 16.6826 39.5391 16.1589 38.9479 15.7688C38.1278 15.1992 37.2946 14.9505 36.234 15.3862C35.3957 15.7411 34.4912 15.9242 33.5769 15.9242C32.6626 15.9242 31.7581 15.7411 30.9198 15.3862C29.8417 14.9356 29.0238 15.2226 28.2103 15.7901C27.6183 16.1788 27.1341 16.7033 26.8003 17.3173C26.4666 17.9312 26.2936 18.6156 26.2968 19.3099C26.2683 21.1506 26.323 22.9934 26.2727 24.8362C26.2487 25.714 26.5701 26.0393 27.4733 26.0222C29.4678 25.984 31.4731 26.0116 33.4785 26.0116H33.4872ZM50.873 26.0116C52.9505 26.0116 55.0281 25.9946 57.1034 26.0116C57.8798 26.0116 58.2296 25.7587 58.2122 24.9489C58.175 23.0721 58.3368 21.1825 58.1444 19.3227C58.0153 18.2513 57.5956 17.2324 56.9285 16.3704C56.0953 15.3076 54.9231 14.7932 53.3966 15.4224C51.6471 16.1408 49.8167 16.0303 48.0847 15.3246C47.7765 15.1867 47.4386 15.1231 47.0997 15.1394C46.7608 15.1557 46.431 15.2513 46.1384 15.4181C44.8547 16.0834 43.864 17.0548 43.7721 18.515C43.6322 20.7361 43.6388 22.9658 43.6125 25.1912C43.6125 25.9202 44.1483 26.001 44.7541 25.9967C46.7857 26.0031 48.826 26.0116 50.8642 26.0116H50.873ZM38.7358 8.24244C38.7533 5.39852 36.5248 3.15399 33.6425 3.11573C32.2841 3.0987 30.9743 3.60649 30.0008 4.52751C29.0273 5.44854 28.4699 6.70749 28.4508 8.02777C28.4246 10.9354 30.6662 13.1927 33.5835 13.1927C34.9402 13.1967 36.2432 12.678 37.2072 11.7502C38.1713 10.8223 38.7178 9.56103 38.727 8.24244H38.7358ZM16.3005 13.1927C17.6793 13.1765 18.9955 12.6311 19.9623 11.6755C20.9291 10.72 21.468 9.43168 21.4616 8.09153C21.4222 5.35176 18.9729 3.04772 16.1649 3.10936C14.8045 3.1476 13.5141 3.70414 12.5722 4.6589C11.6303 5.61366 11.1124 6.89007 11.1302 8.21271C11.148 9.53535 11.7001 10.7982 12.6674 11.7287C13.6347 12.6591 14.9395 13.1827 16.3005 13.1864V13.1927ZM56.0756 8.11278C56.0707 7.4491 55.9309 6.7929 55.6641 6.18196C55.3973 5.57101 55.0088 5.01738 54.521 4.55294C54.0332 4.0885 53.4557 3.72242 52.8217 3.47576C52.1877 3.2291 51.5098 3.10675 50.827 3.11573C49.4519 3.12842 48.1382 3.67153 47.175 4.6256C46.2119 5.57967 45.6781 6.86654 45.6911 8.20312C45.7042 9.53969 46.263 10.8165 47.2446 11.7526C48.2262 12.6888 49.5503 13.2075 50.9255 13.1949C51.6075 13.193 52.2823 13.0596 52.9109 12.8024C53.5395 12.5453 54.1094 12.1695 54.5876 11.6969C55.0658 11.2242 55.4427 10.6641 55.6967 10.0489C55.9506 9.43365 56.0764 8.77559 56.0668 8.11278H56.0756Z" fill="url(#paint0_linear_807_892)" stroke="#272727" stroke-width="0.5"/>
<path d="M13.7286 42.4862C15.3731 40.9707 16.6875 39.5338 18.227 38.3797C22.0081 35.5528 26.2682 34.9003 30.9241 35.8674C33.3747 36.3504 35.861 36.6432 38.3595 36.7431C41.3402 36.8897 44.334 36.8005 47.3257 36.7686C49.4448 36.7452 51.2971 37.2192 52.5414 39.1534C52.8082 38.9408 53.0335 38.7814 53.2259 38.5965C55.5834 36.3307 57.919 34.0415 60.2961 31.7949C62.5027 29.7098 65.7349 29.5738 68.1689 31.4038C70.6401 33.27 70.9113 36.1585 68.825 38.5795C67.2592 40.3968 65.6715 42.1928 64.0904 44.0059C62.1222 46.244 60.1124 48.4333 58.2295 50.7288C56.1148 53.3113 53.3156 54.4697 50.0528 54.5229C44.2619 54.6164 38.4623 54.5335 32.6714 54.5781C30.9503 54.5909 29.2292 54.7907 27.2829 54.9033C27.5803 55.2498 27.6875 55.3816 27.8012 55.507C28.7416 56.5293 28.7547 56.9566 27.7706 57.9449C25.1463 60.5912 22.4805 63.2183 19.8344 65.8539C17.7131 67.9794 17.7175 67.9794 15.535 65.9496C10.7603 61.5299 5.98412 57.1117 1.20651 52.6949C-0.0771948 51.5089 -0.105628 51.0285 1.12121 49.8C4.00353 46.8937 6.89021 43.9889 9.78127 41.0855C10.8463 40.0227 11.4149 40.0227 12.5149 41.0855C12.9676 41.5403 13.359 42.0589 13.7286 42.4862ZM16.1495 44.4267C16.1909 44.522 16.2453 44.6113 16.3113 44.6924C18.9509 47.1835 21.5839 49.6852 24.2541 52.1444C24.5143 52.3825 25.0326 52.4611 25.4219 52.442C28.5098 52.2826 31.5911 51.985 34.679 51.9191C39.9975 51.8043 45.3203 51.8745 50.6432 51.7682C51.6134 51.7702 52.5717 51.5613 53.4481 51.1567C54.3244 50.7522 55.0966 50.1623 55.708 49.4302C56.5828 48.3908 57.5035 47.3833 58.4001 46.3567C61.1818 43.1684 63.9701 39.993 66.7343 36.7919C67.7337 35.6357 67.6856 34.6282 66.6753 33.7121C66.3762 33.426 66.0216 33.2005 65.6321 33.0488C65.2426 32.8971 64.826 32.8221 64.4064 32.8282C63.9868 32.8344 63.5727 32.9215 63.1881 33.0845C62.8034 33.2476 62.456 33.4833 62.1659 33.778C59.487 36.3286 56.8102 38.8792 54.1816 41.4893C53.7197 41.9652 53.3966 42.5521 53.2456 43.1897C52.6617 45.7403 50.8641 47.2855 48.1939 47.3238C45.0951 47.3663 41.9963 47.3451 38.8997 47.3365C37.7756 47.3365 37.1501 46.8264 37.2223 45.9826C37.3141 45.0134 37.9593 44.7201 38.8953 44.7264C41.8855 44.7491 44.8742 44.7491 47.8615 44.7264C49.611 44.7116 50.571 43.7253 50.5601 42.0674C50.5492 40.4095 49.5738 39.4488 47.8331 39.4488C44.4434 39.4488 41.0537 39.5657 37.6662 39.4063C35.1305 39.305 32.6092 38.9835 30.1324 38.4456C24.1841 37.1108 18.9771 39.9781 16.1495 44.4267ZM17.2976 63.8942L25.2294 56.8227L11.1459 43.5532L3.57708 51.205L17.2976 63.8942Z" fill="url(#paint1_linear_807_892)" stroke="transparent" stroke-width="0.5"/>
</g>
<defs>
<linearGradient id="paint0_linear_807_892" x1="33.5669" y1="0.456543" x2="33.5669" y2="28.7232" gradientUnits="userSpaceOnUse">
<stop stop-color="#CC4FAF"/>
<stop offset="1" stop-color="#72D9D4"/>
</linearGradient>
<linearGradient id="paint1_linear_807_892" x1="35.2228" y1="30.1245" x2="35.2228" y2="67.4602" gradientUnits="userSpaceOnUse">
<stop stop-color="#CC4FAF"/>
<stop offset="1" stop-color="#72D9D4"/>
</linearGradient>
<clipPath id="clip0_807_892">
<rect width="70" height="67" fill="transparent" transform="translate(0.216064 0.45459)"/>
</clipPath>
</defs>
</svg>
