<svg width="76" height="65" viewBox="0 0 76 65" fill="none" xmlns="http://www.w3.org/2000/svg">
<g clip-path="url(#clip0_807_890)">
<mask id="path-1-inside-1_807_890" fill="white">
<path d="M37.9644 48.8637C36.7425 50.1732 35.682 51.3666 34.5646 52.4946C32.5432 54.5351 30.1494 55.8543 27.2953 56.2005C26.4357 56.2823 25.6362 56.6858 25.051 57.3333C23.0581 59.4634 20.9893 61.5209 18.9418 63.5953C17.8125 64.7403 17.0604 64.7378 15.924 63.5784C10.9181 58.4726 5.91611 53.3668 0.918085 48.261C-0.313232 47.0023 -0.30848 46.4189 0.939444 45.136C3.00113 43.018 5.10077 40.9388 7.10789 38.7699C7.55737 38.2512 7.82159 37.5926 7.85759 36.9012C7.93588 33.8368 7.80776 30.7651 7.93113 27.703C7.99122 26.2619 8.26891 24.8388 8.75439 23.484C9.76981 20.6543 11.0059 17.9167 12.1043 15.1088C13.1245 12.5043 14.9062 10.7832 17.5468 9.9917C18.1831 9.77484 18.8301 9.59224 19.4851 9.44465C20.6974 9.21711 21.5017 8.64102 22.2135 7.50819C22.7757 6.62468 23.9406 6.05584 24.9394 5.57173C25.5468 5.27884 25.9525 5.08761 26.1423 4.36144C27.1387 0.471577 31.497 -0.787129 34.3606 1.97959C35.5658 3.14388 36.6808 4.40017 38.0355 5.82589C39.2858 4.49215 40.408 3.21409 41.6204 2.0159C43.4946 0.15448 46.147 -0.099684 48.0687 1.57293C48.8825 2.28216 49.3926 3.41742 49.8766 4.4389C50.1304 4.97627 50.2728 5.39261 50.9252 5.51606C52.51 5.81379 53.599 6.7917 54.3463 8.23678C54.5493 8.59134 54.8649 8.8646 55.2407 9.01137C56.3534 9.41561 57.4922 9.73754 58.6286 10.0716C61.1672 10.8123 62.8445 12.5188 63.8481 14.949C65.0343 17.8005 66.2372 20.6422 67.2858 23.5445C67.7573 24.866 68.0246 26.2542 68.0782 27.6595C68.1945 30.7627 68.0782 33.8731 68.147 36.9787C68.1822 37.6327 68.433 38.2554 68.8588 38.7457C70.9323 40.9654 73.0865 43.1027 75.2028 45.2813C76.268 46.3754 76.2775 47.0749 75.2194 48.1569C70.1676 53.3208 65.1063 58.4847 60.0355 63.6486C58.9537 64.7475 58.1779 64.7475 57.1008 63.6486C55.0533 61.5741 52.9774 59.5336 50.994 57.3866C50.3823 56.7089 49.5448 56.2885 48.6453 56.2077C45.8837 55.8543 43.542 54.5956 41.5658 52.635C40.4056 51.4731 39.3001 50.2628 37.9644 48.8637ZM56.9869 29.717C56.7995 29.867 56.7022 29.9372 56.6144 30.0147C53.4044 32.8976 49.2597 31.5977 48.1613 27.4029C48.0868 27.223 47.9745 27.0621 47.8322 26.9316C47.6899 26.8011 47.5212 26.7041 47.338 26.6477C45.2668 26.1103 43.9288 24.8347 43.4804 22.7046C43.3475 22.0752 43.1198 21.884 42.5314 21.7484C40.4958 21.2909 39.1838 19.9766 38.752 17.8973C38.6049 17.1977 38.3274 17.0404 37.701 16.8952C35.1791 16.3094 33.5444 14.0292 33.9715 11.4198C34.1731 10.1805 34.9205 9.03315 35.4875 7.65584C34.5385 6.68761 33.4021 5.5209 32.2324 4.38323C31.421 3.59412 30.3914 3.56749 29.6844 4.25009C28.9774 4.93269 28.9561 6.07037 29.7627 6.93451C30.5693 7.79866 31.4234 8.65312 32.2704 9.51001C33.8101 11.0882 33.6085 12.1 31.6061 12.9593C31.6061 13.3297 31.6061 13.6855 31.6061 14.051C31.6939 17.3309 30.0474 19.6934 26.9845 20.6616C26.1589 20.923 25.3404 21.2982 24.4934 21.3878C22.4222 21.6298 21.2858 22.7699 20.975 24.8371C20.9758 24.9378 20.9853 25.0382 21.0035 25.1372C22.6174 26.5492 23.8314 28.3763 24.5195 30.4286C24.6892 30.7908 24.9317 31.1124 25.2313 31.3726C31.3791 37.6516 37.531 43.9265 43.6868 50.1974C45.2763 51.8144 47.1696 52.8431 49.4305 53.0029C50.1138 53.0392 50.7824 53.2187 51.3946 53.5302C52.0069 53.8417 52.5497 54.2786 52.9893 54.8135C54.7496 56.8032 56.6405 58.667 58.3606 60.4607L72.0616 46.5327C70.064 44.5212 68.045 42.4322 65.962 40.4086C65.5842 40.0589 65.2879 39.6274 65.0945 39.1458C64.9012 38.6642 64.8158 38.1446 64.8445 37.625C64.8896 34.195 64.9632 30.7602 64.8137 27.3375C64.7497 25.8416 64.1731 24.3675 63.8813 23.1064L59.3428 27.3569C60.2491 28.5672 60.3582 29.441 59.637 30.08C58.688 30.9345 57.8267 30.4794 56.9869 29.717ZM25.2692 36.2791C25.236 36.7245 25.2289 37.0828 25.1791 37.4338C24.65 41.038 23.255 44.1387 20.1969 46.2374C19.1648 46.9442 18.2301 46.8111 17.7058 45.9687C17.2028 45.1651 17.4068 44.2332 18.3961 43.6111C23.3783 40.4861 23.4946 30.3947 18.3202 27.1754C17.5017 26.6646 17.2906 25.9191 17.6085 24.9968C18.0379 23.7043 18.4863 22.4165 18.8422 21.1021C19.1506 19.9693 19.8125 19.3738 20.9276 19.0858C22.7947 18.6017 24.6452 18.0353 26.4768 17.418C27.0952 17.1958 27.6265 16.7753 27.9913 16.2195C28.3561 15.6636 28.5347 15.0022 28.5005 14.3342C28.4578 13.0586 27.6773 11.8168 26.4436 11.5288C25.5626 11.3431 24.6524 11.3563 23.7769 11.5675C22.0521 11.9645 20.3748 12.5648 18.6642 13.0368C16.9916 13.4967 15.8006 14.4601 15.1364 16.1279C14.0118 18.9575 12.7947 21.7484 11.7129 24.5999C11.3736 25.534 11.1939 26.5205 11.1814 27.5167C11.1126 30.6634 11.0747 33.8101 11.1814 36.9569C11.2407 38.6344 10.7473 39.8616 9.5207 40.9775C7.56103 42.7711 5.72473 44.7052 3.93351 46.4867C8.59306 51.2359 13.0794 55.8132 17.5871 60.4268C19.6251 58.3403 21.6915 56.1714 23.8267 54.0752C24.3044 53.6213 24.9059 53.3259 25.5515 53.228C27.6251 52.969 29.6773 52.5793 31.2455 51.1221C32.752 49.723 34.0331 48.0698 35.376 46.569L25.2692 36.2791ZM38.6025 13.9856C39.1791 13.717 39.6465 13.6298 39.9288 13.349C42.1257 11.1705 44.3179 8.96295 46.4436 6.69971C47.1221 5.97354 47.0604 5.03679 46.3606 4.30577C45.6607 3.57476 44.7259 3.49246 44.0189 4.18232C41.7722 6.37778 39.5658 8.61923 37.4448 10.9381C37.1031 11.3109 37.0889 12.2574 37.2858 12.7996C37.4661 13.2909 38.1399 13.5935 38.6025 13.9856ZM51.8386 10.3233C51.4139 9.77627 51.1269 9.11303 50.6144 8.81046C49.8789 8.36023 49.1055 8.60954 48.4792 9.25584C46.4815 11.3109 44.4626 13.3418 42.4721 15.4017C41.5966 16.307 41.542 17.2873 42.2562 18.0643C43.013 18.8873 44.0284 18.8728 44.9489 17.9481C46.9703 15.9229 48.9743 13.8767 50.9608 11.8096C51.2953 11.4561 51.4756 10.9502 51.8386 10.3233ZM48.1209 23.726C48.7378 23.3968 49.1767 23.2298 49.5444 22.9539C49.9335 22.6147 50.2996 22.2492 50.6405 21.8598C52.3653 20.0976 54.102 18.3451 55.8101 16.5636C56.548 15.7962 56.612 14.8861 55.9264 14.0728C55.2407 13.2595 54.3131 13.1481 53.6061 13.8307C51.3174 16.0383 49.0921 18.312 46.93 20.6519C46.5978 21.0102 46.5361 21.9227 46.7354 22.4141C46.9418 22.9321 47.6156 23.2661 48.1209 23.726ZM52.8066 28.4946C53.3712 28.2695 53.8196 28.2211 54.0711 27.9693C56.3226 25.7206 58.5788 23.467 60.7425 21.1409C61.3807 20.4607 61.2692 19.536 60.6049 18.8486C59.8932 18.1224 58.9726 18.028 58.2657 18.7179C56.0165 20.9109 53.8101 23.1524 51.6891 25.4713C51.3475 25.8465 51.3262 26.7905 51.5231 27.3327C51.6986 27.812 52.3748 28.117 52.8066 28.4825V28.4946Z"/>
</mask>
<path d="M37.9644 48.8637C36.7425 50.1732 35.682 51.3666 34.5646 52.4946C32.5432 54.5351 30.1494 55.8543 27.2953 56.2005C26.4357 56.2823 25.6362 56.6858 25.051 57.3333C23.0581 59.4634 20.9893 61.5209 18.9418 63.5953C17.8125 64.7403 17.0604 64.7378 15.924 63.5784C10.9181 58.4726 5.91611 53.3668 0.918085 48.261C-0.313232 47.0023 -0.30848 46.4189 0.939444 45.136C3.00113 43.018 5.10077 40.9388 7.10789 38.7699C7.55737 38.2512 7.82159 37.5926 7.85759 36.9012C7.93588 33.8368 7.80776 30.7651 7.93113 27.703C7.99122 26.2619 8.26891 24.8388 8.75439 23.484C9.76981 20.6543 11.0059 17.9167 12.1043 15.1088C13.1245 12.5043 14.9062 10.7832 17.5468 9.9917C18.1831 9.77484 18.8301 9.59224 19.4851 9.44465C20.6974 9.21711 21.5017 8.64102 22.2135 7.50819C22.7757 6.62468 23.9406 6.05584 24.9394 5.57173C25.5468 5.27884 25.9525 5.08761 26.1423 4.36144C27.1387 0.471577 31.497 -0.787129 34.3606 1.97959C35.5658 3.14388 36.6808 4.40017 38.0355 5.82589C39.2858 4.49215 40.408 3.21409 41.6204 2.0159C43.4946 0.15448 46.147 -0.099684 48.0687 1.57293C48.8825 2.28216 49.3926 3.41742 49.8766 4.4389C50.1304 4.97627 50.2728 5.39261 50.9252 5.51606C52.51 5.81379 53.599 6.7917 54.3463 8.23678C54.5493 8.59134 54.8649 8.8646 55.2407 9.01137C56.3534 9.41561 57.4922 9.73754 58.6286 10.0716C61.1672 10.8123 62.8445 12.5188 63.8481 14.949C65.0343 17.8005 66.2372 20.6422 67.2858 23.5445C67.7573 24.866 68.0246 26.2542 68.0782 27.6595C68.1945 30.7627 68.0782 33.8731 68.147 36.9787C68.1822 37.6327 68.433 38.2554 68.8588 38.7457C70.9323 40.9654 73.0865 43.1027 75.2028 45.2813C76.268 46.3754 76.2775 47.0749 75.2194 48.1569C70.1676 53.3208 65.1063 58.4847 60.0355 63.6486C58.9537 64.7475 58.1779 64.7475 57.1008 63.6486C55.0533 61.5741 52.9774 59.5336 50.994 57.3866C50.3823 56.7089 49.5448 56.2885 48.6453 56.2077C45.8837 55.8543 43.542 54.5956 41.5658 52.635C40.4056 51.4731 39.3001 50.2628 37.9644 48.8637ZM56.9869 29.717C56.7995 29.867 56.7022 29.9372 56.6144 30.0147C53.4044 32.8976 49.2597 31.5977 48.1613 27.4029C48.0868 27.223 47.9745 27.0621 47.8322 26.9316C47.6899 26.8011 47.5212 26.7041 47.338 26.6477C45.2668 26.1103 43.9288 24.8347 43.4804 22.7046C43.3475 22.0752 43.1198 21.884 42.5314 21.7484C40.4958 21.2909 39.1838 19.9766 38.752 17.8973C38.6049 17.1977 38.3274 17.0404 37.701 16.8952C35.1791 16.3094 33.5444 14.0292 33.9715 11.4198C34.1731 10.1805 34.9205 9.03315 35.4875 7.65584C34.5385 6.68761 33.4021 5.5209 32.2324 4.38323C31.421 3.59412 30.3914 3.56749 29.6844 4.25009C28.9774 4.93269 28.9561 6.07037 29.7627 6.93451C30.5693 7.79866 31.4234 8.65312 32.2704 9.51001C33.8101 11.0882 33.6085 12.1 31.6061 12.9593C31.6061 13.3297 31.6061 13.6855 31.6061 14.051C31.6939 17.3309 30.0474 19.6934 26.9845 20.6616C26.1589 20.923 25.3404 21.2982 24.4934 21.3878C22.4222 21.6298 21.2858 22.7699 20.975 24.8371C20.9758 24.9378 20.9853 25.0382 21.0035 25.1372C22.6174 26.5492 23.8314 28.3763 24.5195 30.4286C24.6892 30.7908 24.9317 31.1124 25.2313 31.3726C31.3791 37.6516 37.531 43.9265 43.6868 50.1974C45.2763 51.8144 47.1696 52.8431 49.4305 53.0029C50.1138 53.0392 50.7824 53.2187 51.3946 53.5302C52.0069 53.8417 52.5497 54.2786 52.9893 54.8135C54.7496 56.8032 56.6405 58.667 58.3606 60.4607L72.0616 46.5327C70.064 44.5212 68.045 42.4322 65.962 40.4086C65.5842 40.0589 65.2879 39.6274 65.0945 39.1458C64.9012 38.6642 64.8158 38.1446 64.8445 37.625C64.8896 34.195 64.9632 30.7602 64.8137 27.3375C64.7497 25.8416 64.1731 24.3675 63.8813 23.1064L59.3428 27.3569C60.2491 28.5672 60.3582 29.441 59.637 30.08C58.688 30.9345 57.8267 30.4794 56.9869 29.717ZM25.2692 36.2791C25.236 36.7245 25.2289 37.0828 25.1791 37.4338C24.65 41.038 23.255 44.1387 20.1969 46.2374C19.1648 46.9442 18.2301 46.8111 17.7058 45.9687C17.2028 45.1651 17.4068 44.2332 18.3961 43.6111C23.3783 40.4861 23.4946 30.3947 18.3202 27.1754C17.5017 26.6646 17.2906 25.9191 17.6085 24.9968C18.0379 23.7043 18.4863 22.4165 18.8422 21.1021C19.1506 19.9693 19.8125 19.3738 20.9276 19.0858C22.7947 18.6017 24.6452 18.0353 26.4768 17.418C27.0952 17.1958 27.6265 16.7753 27.9913 16.2195C28.3561 15.6636 28.5347 15.0022 28.5005 14.3342C28.4578 13.0586 27.6773 11.8168 26.4436 11.5288C25.5626 11.3431 24.6524 11.3563 23.7769 11.5675C22.0521 11.9645 20.3748 12.5648 18.6642 13.0368C16.9916 13.4967 15.8006 14.4601 15.1364 16.1279C14.0118 18.9575 12.7947 21.7484 11.7129 24.5999C11.3736 25.534 11.1939 26.5205 11.1814 27.5167C11.1126 30.6634 11.0747 33.8101 11.1814 36.9569C11.2407 38.6344 10.7473 39.8616 9.5207 40.9775C7.56103 42.7711 5.72473 44.7052 3.93351 46.4867C8.59306 51.2359 13.0794 55.8132 17.5871 60.4268C19.6251 58.3403 21.6915 56.1714 23.8267 54.0752C24.3044 53.6213 24.9059 53.3259 25.5515 53.228C27.6251 52.969 29.6773 52.5793 31.2455 51.1221C32.752 49.723 34.0331 48.0698 35.376 46.569L25.2692 36.2791ZM38.6025 13.9856C39.1791 13.717 39.6465 13.6298 39.9288 13.349C42.1257 11.1705 44.3179 8.96295 46.4436 6.69971C47.1221 5.97354 47.0604 5.03679 46.3606 4.30577C45.6607 3.57476 44.7259 3.49246 44.0189 4.18232C41.7722 6.37778 39.5658 8.61923 37.4448 10.9381C37.1031 11.3109 37.0889 12.2574 37.2858 12.7996C37.4661 13.2909 38.1399 13.5935 38.6025 13.9856ZM51.8386 10.3233C51.4139 9.77627 51.1269 9.11303 50.6144 8.81046C49.8789 8.36023 49.1055 8.60954 48.4792 9.25584C46.4815 11.3109 44.4626 13.3418 42.4721 15.4017C41.5966 16.307 41.542 17.2873 42.2562 18.0643C43.013 18.8873 44.0284 18.8728 44.9489 17.9481C46.9703 15.9229 48.9743 13.8767 50.9608 11.8096C51.2953 11.4561 51.4756 10.9502 51.8386 10.3233ZM48.1209 23.726C48.7378 23.3968 49.1767 23.2298 49.5444 22.9539C49.9335 22.6147 50.2996 22.2492 50.6405 21.8598C52.3653 20.0976 54.102 18.3451 55.8101 16.5636C56.548 15.7962 56.612 14.8861 55.9264 14.0728C55.2407 13.2595 54.3131 13.1481 53.6061 13.8307C51.3174 16.0383 49.0921 18.312 46.93 20.6519C46.5978 21.0102 46.5361 21.9227 46.7354 22.4141C46.9418 22.9321 47.6156 23.2661 48.1209 23.726ZM52.8066 28.4946C53.3712 28.2695 53.8196 28.2211 54.0711 27.9693C56.3226 25.7206 58.5788 23.467 60.7425 21.1409C61.3807 20.4607 61.2692 19.536 60.6049 18.8486C59.8932 18.1224 58.9726 18.028 58.2657 18.7179C56.0165 20.9109 53.8101 23.1524 51.6891 25.4713C51.3475 25.8465 51.3262 26.7905 51.5231 27.3327C51.6986 27.812 52.3748 28.117 52.8066 28.4825V28.4946Z" fill="url(#paint0_linear_807_890)" stroke="transparent" mask="url(#path-1-inside-1_807_890)"/>
</g>
<defs>
<linearGradient id="paint0_linear_807_890" x1="38.0032" y1="0.456299" x2="38.0032" y2="64.4728" gradientUnits="userSpaceOnUse">
<stop stop-color="#CC4FAF"/>
<stop offset="1" stop-color="#72D9D4"/>
</linearGradient>
<clipPath id="clip0_807_890">
<rect width="76" height="64" fill="transparent" transform="translate(0 0.45459)"/>
</clipPath>
</defs>
</svg>
