<svg width="31" height="31" viewBox="0 0 31 31" fill="none" xmlns="http://www.w3.org/2000/svg">
<circle cx="15.2429" cy="9.85998" r="1.75366" fill="#72D9D4"/>
<path d="M20.0256 20.2868C19.874 20.7441 19.7409 21.1666 19.5933 21.5847C19.325 22.345 18.8107 22.7182 18.0156 22.7161C16.1658 22.7127 14.3175 22.7032 12.4708 22.6876C11.7174 22.6782 11.2036 22.3055 10.9561 21.5964C10.8051 21.1616 10.6726 20.72 10.515 20.2277C9.83133 20.5709 9.15907 20.9079 8.48806 21.2462C8.18299 21.4009 7.88543 21.5708 7.57349 21.7084C6.82533 22.04 6.03561 21.5805 6.05864 20.7721C6.09971 19.2699 6.1958 17.7685 6.29253 16.2678C6.41052 14.4388 7.48827 13.353 9.12286 12.7431C9.50885 12.5989 9.61499 12.3742 9.64728 11.991C9.96202 8.27025 11.2781 4.94674 13.6548 2.05113C13.8567 1.81202 14.0732 1.58557 14.3029 1.37306C14.9468 0.760746 15.8382 0.762058 16.4549 1.40537C18.0616 3.069 19.1753 5.03571 19.9616 7.1969C20.5401 8.77953 20.8851 10.438 20.9857 12.12C21.0062 12.4611 21.1261 12.6433 21.4404 12.784C21.8846 12.99 22.3165 13.2215 22.7338 13.4776C23.4523 13.8993 23.885 14.531 24.0834 15.3367C24.5403 17.197 24.5245 19.0884 24.4745 20.981C24.4542 21.7387 23.616 22.1204 22.8897 21.7543C22.0018 21.3064 21.1242 20.837 20.2421 20.3771C20.1859 20.3509 20.1303 20.3316 20.0256 20.2868ZM15.0409 2.43513C13.6628 3.95371 12.5965 5.72834 11.9028 7.65813C10.2707 12.1833 10.6613 16.6737 12.1724 21.1349C12.2148 21.2604 12.4513 21.3964 12.5993 21.3984C14.3724 21.4256 16.1476 21.4219 17.9188 21.4409C18.1807 21.4435 18.3216 21.3594 18.4083 21.1023C19.4677 17.9926 20.0169 14.8177 19.645 11.5262C19.2665 8.17081 18.0219 5.18176 15.8296 2.59851C15.4233 2.11948 15.3417 2.11211 15.0371 2.43132L15.0409 2.43513ZM9.47389 14.0196C8.51805 14.3868 7.73021 14.9364 7.62497 16.1144C7.55862 16.8562 7.45307 17.5939 7.39937 18.3357C7.35178 18.9946 7.34908 19.657 7.32514 20.3945L10.1088 18.9819L9.47389 14.0196ZM23.2061 20.4653C23.2132 18.9211 23.1611 17.4583 22.935 15.9951C22.7622 14.891 21.9914 14.4392 21.1398 14.0712L20.45 19.0344C21.3075 19.4797 22.2243 19.9543 23.2023 20.4615L23.2061 20.4653Z" fill="#4C6563"/>
<path d="M15.227 27.3043C15.8747 26.5423 16.382 25.6714 16.7253 24.732C16.7817 24.5792 16.823 24.42 16.8782 24.2659C17.0135 23.894 17.2856 23.7657 17.6546 23.8447C17.7397 23.8617 17.8202 23.8969 17.8903 23.9481C17.9604 23.9992 18.0186 24.065 18.0607 24.1409C18.1029 24.2167 18.1281 24.3009 18.1345 24.3874C18.1409 24.474 18.1284 24.5609 18.0979 24.6421C17.8261 25.3607 17.5523 26.0925 17.1662 26.7529C16.7719 27.4266 16.2646 28.0396 15.7649 28.6438C15.4066 29.0778 15.0651 29.0546 14.675 28.6377C13.6528 27.5508 12.8899 26.2467 12.4432 24.8231C12.2795 24.3042 12.4198 23.9462 12.8095 23.8235C13.1992 23.7009 13.5182 23.9214 13.6725 24.4282C13.9906 25.468 14.5116 26.391 15.227 27.3043Z" fill="#4C6563"/>
<path d="M17.2495 7.95372C17.7399 8.46641 18.0095 9.15113 18.0002 9.86056C17.9909 10.57 17.7035 11.2474 17.1998 11.7471C16.6961 12.2467 16.0164 12.5287 15.3069 12.5323C14.5974 12.5359 13.9149 12.2608 13.4062 11.7662C12.9157 11.2535 12.6462 10.5688 12.6554 9.85939C12.6647 9.14996 12.9522 8.47253 13.4559 7.97287C13.9596 7.47322 14.6393 7.19126 15.3488 7.18768C16.0582 7.1841 16.7408 7.45918 17.2495 7.95372ZM14.3343 10.8586C14.5317 11.053 14.7822 11.1845 15.0542 11.2367C15.3262 11.2889 15.6076 11.2594 15.8629 11.1519C16.1182 11.0445 16.336 10.8638 16.4887 10.6327C16.6415 10.4017 16.7224 10.1306 16.7214 9.85361C16.7203 9.57662 16.6372 9.30616 16.4827 9.0763C16.3281 8.84644 16.109 8.66748 15.8529 8.56198C15.5968 8.45648 15.3152 8.42916 15.0435 8.48346C14.7719 8.53776 14.5225 8.67125 14.3266 8.86711C14.1937 8.99691 14.0883 9.15207 14.0165 9.32341C13.9448 9.49474 13.9081 9.67876 13.9089 9.86451C13.9096 10.0503 13.9476 10.234 14.0207 10.4048C14.0938 10.5755 14.2004 10.7299 14.3343 10.8586Z" fill="#4C6563"/>
</svg>
