<svg width="63" height="60" viewBox="0 0 63 60" fill="none" xmlns="http://www.w3.org/2000/svg">
<g clip-path="url(#clip0_807_896)">
<path d="M31.5926 0.460449C33.0704 0.550887 34.0661 1.29171 34.6485 2.62711C36.8249 7.63004 39.0248 12.6137 41.1795 17.6205C41.5514 18.4845 41.943 18.929 43.045 19.0098C48.659 19.4235 54.2612 19.9719 59.8694 20.4914C61.2665 20.6184 62.2779 21.3496 62.76 22.6215C63.2913 24.0243 62.9194 25.2808 61.7761 26.2775C59.1524 28.5519 56.517 30.8167 53.8697 33.0719C52.1203 34.5728 50.3847 36.091 48.6059 37.5572C48.1277 37.9421 48.1651 38.3269 48.2793 38.8253C49.5426 44.24 50.7862 49.6605 52.0554 55.0752C52.4115 56.5876 52.1636 57.9076 50.8275 58.837C49.4914 59.7664 48.1336 59.5817 46.7798 58.787C41.9549 55.9507 37.1122 53.1452 32.297 50.2955C31.7067 49.9472 31.2994 49.9414 30.7051 50.2955C25.8631 53.16 21.0093 56.0033 16.1437 58.8255C14.5872 59.7318 13.1212 59.674 11.9562 58.6869C10.8464 57.746 10.6005 56.5453 10.9114 55.1964C12.1648 49.7779 13.4026 44.3554 14.6974 38.9465C14.8784 38.1999 14.6796 37.792 14.1208 37.3225C9.81531 33.6652 5.52624 29.9887 1.25356 26.2929C0.137837 25.3308 -0.267516 24.1474 0.20278 22.7485C0.641592 21.4362 1.63137 20.6993 2.99897 20.5126C4.26424 20.3394 5.54132 20.2586 6.8125 20.147C11.4092 19.7448 16.0099 19.3619 20.6026 18.9174C20.9371 18.8847 21.374 18.4922 21.5196 18.1631C23.818 13.0088 26.0907 7.84299 28.3379 2.66559C28.9479 1.23014 29.9948 0.487388 31.5926 0.460449ZM15.0122 54.9443C15.6025 54.623 15.9115 54.4614 16.2145 54.2843C20.5672 51.7405 24.9376 49.2217 29.2628 46.6356C30.8114 45.7101 32.2026 45.7235 33.7453 46.6356C38.0744 49.2237 42.4409 51.7425 46.7936 54.2863C47.1045 54.4671 47.4272 54.6288 47.9172 54.8924C47.8148 54.3401 47.7676 54.0284 47.6987 53.7225C46.5574 48.7715 45.4378 43.8167 44.2532 38.8753C43.8911 37.3648 44.265 36.1814 45.4338 35.1731C49.4271 31.7519 53.4184 28.3287 57.4077 24.9036C57.6476 24.7447 57.9067 24.6154 58.1791 24.5188L57.9095 24.1859C56.292 24.0377 54.6745 23.8877 53.055 23.7453C49.1195 23.397 45.1643 23.0603 41.2209 22.7004C39.7136 22.5638 38.7297 21.7845 38.1334 20.3914C36.1086 15.679 34.0307 10.9897 31.9724 6.29079C31.8405 5.99254 31.6929 5.70007 31.4863 5.26327C31.2443 5.77511 31.0928 6.08683 30.9472 6.41779C28.9164 11.0571 26.864 15.6886 24.8707 20.3452C24.2449 21.8057 23.206 22.583 21.6199 22.7216C18.3928 23.0038 15.1657 23.2886 11.9385 23.5759C9.64216 23.778 7.34577 23.9858 4.85458 24.209C5.22649 24.5554 5.4449 24.7863 5.683 24.9787C9.64608 28.3845 13.6105 31.7891 17.5762 35.1924C18.5916 36.0621 19.115 37.1377 18.8237 38.4404C18.0504 41.904 17.2161 45.3502 16.4132 48.8042C15.9626 50.763 15.5218 52.72 15.0142 54.9386L15.0122 54.9443Z" fill="url(#paint0_linear_807_896)" stroke="transparent"/>
</g>
<defs>
<linearGradient id="paint0_linear_807_896" x1="31.5039" y1="0.460449" x2="31.5039" y2="59.4681" gradientUnits="userSpaceOnUse">
<stop stop-color="#CC4FAF"/>
<stop offset="1" stop-color="#72D9D4"/>
</linearGradient>
<clipPath id="clip0_807_896">
<rect width="63" height="59" fill="transparent" transform="translate(0 0.45459)"/>
</clipPath>
</defs>
</svg>
