<svg width="23" height="22" viewBox="0 0 23 22" fill="none" xmlns="http://www.w3.org/2000/svg">
<path d="M11.339 0.150514C17.3264 0.150514 22.155 5.03082 22.1491 11.0716C22.144 17.0243 17.2543 21.8546 11.2381 21.8495C5.26425 21.8453 0.442444 16.9556 0.449226 10.9072C0.456008 4.98165 5.34988 0.147971 11.339 0.150514ZM17.8062 17.967C20.3349 15.7705 21.7176 11.6727 20.3222 7.79437C18.8871 3.80502 15.0664 1.24661 10.8007 1.43057C6.75962 1.60435 3.15259 4.51795 2.06073 8.45728C0.984983 12.339 2.6143 16.1715 4.79716 17.9517C5.44482 15.9307 6.73844 14.484 8.67801 13.6114C5.94836 11.6015 6.13486 8.25807 7.81418 6.46685C9.64101 4.52219 12.6012 4.39503 14.4993 6.18032C15.4758 7.09839 16.004 8.23095 16.0192 9.55762C16.0396 11.2531 15.2944 12.5907 13.8999 13.6029C15.8607 14.4837 17.1484 15.9189 17.8062 17.967ZM10.8888 20.5796C13.0556 20.5796 14.7883 20.0778 16.3041 19.1733C16.655 18.9639 16.7033 18.7613 16.5991 18.3959C15.8794 15.8706 13.66 14.2785 10.9719 14.3811C8.61782 14.471 6.47904 16.2461 5.95515 18.5298C5.89242 18.8037 5.94327 18.9537 6.1925 19.1097C7.75823 20.0718 9.45197 20.5601 10.8888 20.5796ZM11.2788 6.17947C9.39687 6.19219 7.83283 7.76724 7.83707 9.64408C7.84787 10.5566 8.21539 11.4286 8.861 12.0736C9.5066 12.7186 10.379 13.0852 11.2915 13.0951C13.1845 13.0994 14.7807 11.493 14.7544 9.60933C14.7282 7.72571 13.1582 6.16675 11.2822 6.17947H11.2788Z" fill="#4C6563"/>
</svg>
